<?xml version="1.0" encoding="UTF-8"?>
<svg version="1.1" xmlns="http://www.w3.org/2000/svg" width="1024" height="1024">
<path d="M0 0 C337.92 0 675.84 0 1024 0 C1024 337.92 1024 675.84 1024 1024 C686.08 1024 348.16 1024 0 1024 C0 686.08 0 348.16 0 0 Z " fill="#FEFEFE" transform="translate(0,0)"/>
<path d="M0 0 C0.85225159 -0.00571014 1.70450317 -0.01142029 2.58258057 -0.01730347 C3.51457275 -0.01842133 4.44656494 -0.01953918 5.40679932 -0.02069092 C6.39085754 -0.02565582 7.37491577 -0.03062073 8.38879395 -0.03573608 C11.65033666 -0.05036283 14.91183072 -0.05716102 18.17340088 -0.06268311 C20.439209 -0.06843468 22.70501711 -0.07419241 24.9708252 -0.07995605 C29.72552721 -0.09046788 34.48021231 -0.09630918 39.23492432 -0.09979248 C45.32241331 -0.10527378 51.40967824 -0.12929344 57.49709702 -0.15776443 C62.17944996 -0.17640543 66.86174913 -0.18159723 71.54413605 -0.18312836 C73.78797885 -0.18615272 76.03182076 -0.19417394 78.27562714 -0.20731354 C81.41848183 -0.2244022 84.56079178 -0.22248655 87.70367432 -0.21600342 C88.62756958 -0.2252182 89.55146484 -0.23443298 90.50335693 -0.243927 C97.36816263 -0.19965394 102.21702384 0.82626762 107.49517822 5.52960205 C111.07987949 10.3006126 112.31719078 16.26007449 113.91558838 21.91387939 C114.47053121 23.80530814 115.02547614 25.69673628 115.58054161 27.58812904 C116.35049575 30.2258721 117.10659122 32.86751257 117.86303711 35.50915527 C119.18832027 40.12538744 120.53721275 44.73478625 121.88345337 49.34494019 C122.59722627 51.79438177 123.30645229 54.24515429 124.01046753 56.69741821 C126.61112871 67.91714341 126.61112871 67.91714341 132.81402588 77.14044189 C135.20538503 78.24079421 135.20538503 78.24079421 137.94293213 79.12091064 C139.48110596 79.65313232 139.48110596 79.65313232 141.050354 80.19610596 C142.14799072 80.56961182 143.24562744 80.94311768 144.37652588 81.32794189 C155.12859618 85.10677138 165.5648473 89.15545665 175.81402588 94.14044189 C176.75713623 94.59902588 177.70024658 95.05760986 178.67193604 95.53009033 C198.74728319 105.40321188 217.46440593 116.9945229 234.81402588 131.14044189 C235.58577148 131.75991699 235.58577148 131.75991699 236.37310791 132.39190674 C244.58700969 139.01763721 252.14268852 146.26830578 259.62652588 153.70294189 C260.49793213 154.56508301 261.36933838 155.42722412 262.26715088 156.31549072 C268.20643449 162.28358935 273.55133099 168.57497985 278.81402588 175.14044189 C279.86739773 176.39335182 280.92639343 177.64157997 281.99371338 178.88262939 C282.67433838 179.67540283 282.67433838 179.67540283 283.36871338 180.48419189 C284.27050878 181.53006111 285.17424377 182.57426026 286.07965088 183.61700439 C292.85067364 191.52305409 292.85067364 191.52305409 292.75543213 195.72637939 C289.46729706 204.15819462 275.58619256 210.524906 268.16851807 215.54522705 C264.75885429 217.85534144 261.35853094 220.17908087 257.95709229 222.50128174 C255.16047727 224.40992585 252.36243673 226.3164632 249.56402588 228.22247314 C244.71968613 231.5223487 239.87861853 234.82698732 235.03887939 238.13360596 C232.26762155 240.02431935 229.49216836 241.90874793 226.71636963 243.79278564 C223.7687213 245.79605822 220.84153968 247.8208182 217.94293213 249.89434814 C216.88976807 250.63555908 215.836604 251.37677002 214.75152588 252.14044189 C213.89429932 252.75919189 213.03707275 253.37794189 212.15386963 254.01544189 C209.81402588 255.14044189 209.81402588 255.14044189 207.33355713 255.19903564 C203.78201036 253.70683537 201.87649226 251.16007067 199.56402588 248.20294189 C198.59127341 247.00794887 197.61730101 245.81394791 196.64215088 244.62091064 C196.16326416 244.02842529 195.68437744 243.43593994 195.190979 242.82550049 C191.89127508 238.78745856 188.36703488 234.95505944 184.81402588 231.14044189 C183.62293213 229.85073486 183.62293213 229.85073486 182.40777588 228.53497314 C152.05482511 196.85636639 104.67155742 174.07071406 60.50111389 172.87564087 C56.75081034 172.81405387 53.00221551 172.81037773 49.25152588 172.82794189 C48.06772842 172.83017761 48.06772842 172.83017761 46.86001587 172.8324585 C34.28512951 172.8750556 22.16527623 173.64862 9.81402588 176.14044189 C8.415677 176.38703869 7.01724107 176.63314247 5.61871338 176.87872314 C-36.11062648 184.8473879 -78.40934141 215.24473683 -102.18597412 250.14044189 C-129.91816999 291.16727132 -140.20504622 340.58378057 -131.44378662 389.40606689 C-122.37204578 435.99848583 -96.7038257 476.98955189 -58.06097412 504.64044189 C-37.43827426 518.49631836 -16.28491724 528.0833819 7.81402588 534.14044189 C8.56135986 534.32896729 9.30869385 534.51749268 10.07867432 534.71173096 C21.51073115 537.43317193 33.06355613 537.38056195 44.75152588 537.39044189 C45.57761353 537.39144897 46.40370117 537.39245605 47.25482178 537.39349365 C59.37794545 537.38349156 70.95950133 536.85360494 82.81402588 534.14044189 C84.24856158 533.84571479 85.68346613 533.55277795 87.11871338 533.26153564 C128.42428699 524.55264132 168.80496205 499.66753417 192.19659424 464.03741455 C201.37329056 449.5891535 208.21645431 433.83923944 211.98590088 417.13653564 C212.25346191 415.97486877 212.25346191 415.97486877 212.52642822 414.78973389 C212.95939314 412.9074988 213.38725632 411.02409135 213.81402588 409.14044189 C212.83427197 409.13805354 211.85451807 409.13566519 210.84507465 409.13320446 C187.01770009 409.07443886 163.19042688 408.99857428 139.36316395 408.90472698 C127.84052761 408.85974018 116.31792238 408.82033216 104.79522705 408.79400635 C94.75334694 408.77104965 84.71156504 408.7376777 74.66976279 408.69174033 C69.35152611 408.66777674 64.03338689 408.64906851 58.71509743 408.64282799 C53.71069772 408.63679134 48.70654746 408.61684292 43.70223999 408.58616638 C41.86442991 408.57736336 40.02658726 408.57366824 38.18875694 408.57543373 C35.68101403 408.57708232 33.1740353 408.56042306 30.66639709 408.53916931 C29.57348672 408.54644068 29.57348672 408.54644068 28.45849735 408.55385894 C24.08132598 408.49256189 21.27360741 407.8665403 17.81402588 405.14044189 C14.79866144 399.84462588 14.37566149 395.37107875 14.40997314 389.362854 C14.40310989 388.51315536 14.39624664 387.66345673 14.38917542 386.78800964 C14.37097185 383.99776187 14.37473475 381.20807966 14.38043213 378.41778564 C14.37586811 376.46918048 14.37056188 374.52057693 14.36454773 372.57197571 C14.35562996 368.49601687 14.35802561 364.42025413 14.36798096 360.34429932 C14.37948474 355.12656843 14.35923069 349.90951289 14.33006382 344.69187069 C14.31170366 340.67092101 14.31199365 336.65013337 14.31770134 332.6291523 C14.31785449 330.70546075 14.31181521 328.78175817 14.29940987 326.85810661 C14.28450045 324.16785308 14.29517526 321.47885015 14.31231689 318.78863525 C14.30264893 317.99833923 14.29298096 317.20804321 14.28302002 316.39379883 C14.36557637 310.19353342 16.37875886 306.57570891 20.81402588 302.14044189 C23.07185608 301.8885929 23.07185608 301.8885929 25.95445347 301.8859663 C27.05015488 301.88013411 28.1458563 301.87430191 29.27476078 301.86829299 C30.48844474 301.87207231 31.70212869 301.87585163 32.95259094 301.87974548 C34.23426869 301.87591994 35.51594644 301.87209439 36.83646291 301.86815292 C40.40609491 301.85781943 43.97562707 301.86006829 47.54526746 301.86433351 C51.39071398 301.86679124 55.23613587 301.85779823 59.08157349 301.85029602 C66.62154126 301.83751816 74.16147346 301.83575934 81.70145024 301.83809628 C87.8311928 301.83987697 93.96092455 301.83813517 100.09066582 301.83387184 C100.96203512 301.83327665 101.83340443 301.83268146 102.73117886 301.83206824 C104.50125921 301.83085651 106.27133957 301.82964238 108.04141992 301.82842586 C124.65999834 301.81753744 141.27855651 301.81971836 157.89713608 301.82581071 C173.09699143 301.8309752 188.2967826 301.81973912 203.49662525 301.80071249 C219.09881932 301.78133191 234.70098303 301.77307885 250.30318922 301.77683574 C259.06443767 301.7787482 267.82563156 301.77625632 276.58687019 301.7621212 C284.04961713 301.75020327 291.51227596 301.74880675 298.97502411 301.76091137 C302.78168613 301.76679855 306.58818706 301.76790423 310.39483833 301.75590897 C314.52554486 301.74304425 318.65586835 301.75351923 322.78657532 301.76622009 C323.98464422 301.75884581 325.18271312 301.75147152 326.41708714 301.74387378 C341.51513195 301.84154796 341.51513195 301.84154796 346.81402588 307.14044189 C349.43780576 315.01178153 348.97917896 323.97636156 349.01715088 332.20294189 C349.02411987 333.22471527 349.03108887 334.24648865 349.03826904 335.29922485 C349.0555678 338.57967291 349.06198894 341.85995013 349.06402588 345.14044189 C349.0655365 346.81967743 349.0655365 346.81967743 349.06707764 348.53283691 C349.05689393 365.25178434 348.623434 381.61980291 345.81402588 398.14044189 C345.59722168 399.45286865 345.59722168 399.45286865 345.3760376 400.79180908 C344.38360819 406.62329351 343.16512454 412.38235057 341.81402588 418.14044189 C341.62002197 418.98332764 341.42601807 419.82621338 341.22613525 420.69464111 C335.70850525 444.27594079 328.77826304 468.97294538 316.81402588 490.14044189 C316.19238471 491.33929778 315.57660905 492.54121109 314.96636963 493.74591064 C306.54526072 510.26281209 296.25637095 525.57932747 284.81402588 540.14044189 C284.04445557 541.12399658 283.27488525 542.10755127 282.48199463 543.12091064 C269.90228342 558.82855004 255.70393921 573.77666102 239.81402588 586.14044189 C238.85496338 586.91645752 237.89590088 587.69247314 236.90777588 588.49200439 C212.46079893 607.93846333 184.21012776 622.07064997 154.50543213 631.48419189 C153.27792236 631.87646973 152.0504126 632.26874756 150.78570557 632.6729126 C148.39588423 633.42726573 145.99947711 634.16114615 143.59625244 634.87164307 C142.50925049 635.21171387 141.42224854 635.55178467 140.30230713 635.90216064 C139.33849121 636.19050781 138.37467529 636.47885498 137.38165283 636.77593994 C132.45473058 639.39423113 130.81042951 643.80039653 129.15411377 648.88214111 C128.60459008 650.73342107 128.06603594 652.5879815 127.53668213 654.44512939 C127.09684242 655.94029587 127.09684242 655.94029587 126.64811707 657.46566772 C125.71459445 660.64619528 124.79514293 663.83058088 123.87652588 667.01544189 C123.26356819 669.11728886 122.6496446 671.2188544 122.034729 673.32012939 C121.73440765 674.34680725 121.4340863 675.37348511 121.12466431 676.43127441 C119.95581166 680.42447467 118.78683637 684.41763559 117.61462402 688.40985107 C117.10208179 690.15797294 116.59159238 691.90669881 116.08374023 693.65618896 C115.44016615 695.86504132 114.78363962 698.0695711 114.12261963 700.27325439 C113.76869141 701.47095459 113.41476318 702.66865479 113.05010986 703.90264893 C111.04145998 709.16409763 109.52827117 712.33778255 104.2940979 714.78857422 C99.44549318 716.48047255 94.871339 716.56294007 89.77716064 716.52862549 C88.80533844 716.53388245 87.83351624 716.5391394 86.83224487 716.54455566 C83.6398074 716.55769152 80.44787413 716.54903948 77.25543213 716.53887939 C75.02398076 716.54090213 72.79253004 716.54381523 70.56108093 716.5475769 C65.89166958 716.55199172 61.22243079 716.54559681 56.55303955 716.53155518 C50.58355481 716.51447394 44.61447508 716.52430337 38.64500523 716.54227257 C34.03890462 716.55314155 29.43289914 716.54964958 24.82679558 716.54188919 C22.62648406 716.53989528 20.42616376 716.54231786 18.2258625 716.54932785 C15.1437727 716.55699245 12.06232774 716.54526743 8.98028564 716.52862549 C8.0807869 716.53469818 7.18128815 716.54077087 6.25453186 716.54702759 C0.47447575 716.48954591 -4.97807583 715.81806465 -10.18597412 713.14044189 C-13.87592929 708.34350017 -15.16350054 703.36033328 -16.43597412 697.51544189 C-16.63505371 696.64878906 -16.8341333 695.78213623 -17.03924561 694.88922119 C-18.28948157 689.38067317 -19.4615276 683.85572438 -20.62747192 678.32885742 C-21.14788076 675.86343864 -21.67119234 673.39864793 -22.19476318 670.93389893 C-22.88952017 667.66246496 -23.57060896 664.38858522 -24.24359131 661.11260986 C-26.14383565 647.51486743 -26.14383565 647.51486743 -33.14349365 636.76080322 C-35.46053581 635.67870108 -37.74013559 634.88236463 -40.18597412 634.14044189 C-41.56105846 633.6442675 -42.93480384 633.1443639 -44.30706787 632.64044189 C-45.00211426 632.39906494 -45.69716064 632.15768799 -46.41326904 631.90899658 C-56.64706152 628.35039957 -66.41164559 623.94714135 -76.20135498 619.31622314 C-87.68368402 613.34408033 -87.68368402 613.34408033 -100.18597412 612.14044189 C-102.23667422 613.08424703 -102.23667422 613.08424703 -104.33831787 614.32794189 C-105.13213867 614.78233643 -105.92595947 615.23673096 -106.74383545 615.70489502 C-110.62013574 617.98347602 -114.46914112 620.30432474 -118.31097412 622.64044189 C-126.01915298 627.29407534 -133.79112041 631.82399263 -141.62347412 636.26544189 C-142.6001001 636.82167236 -143.57672607 637.37790283 -144.58294678 637.95098877 C-145.50253174 638.46983643 -146.4221167 638.98868408 -147.36956787 639.52325439 C-148.17966309 639.98103271 -148.9897583 640.43881104 -149.82440186 640.91046143 C-154.77935016 643.491153 -158.53214475 644.81123521 -164.18597412 644.14044189 C-170.22069751 641.2784521 -174.56115826 637.01003553 -178.93597412 632.07794189 C-185.01186416 625.41875384 -191.24827 618.95137579 -197.62347412 612.57794189 C-198.45137451 611.74577148 -199.2792749 610.91360107 -200.13226318 610.05621338 C-204.44534684 605.75224921 -208.84024704 601.62140899 -213.45965576 597.64849854 C-215.64049655 595.7433856 -217.67012178 593.71832046 -219.68597412 591.64044189 C-222.40210417 588.89186661 -225.14180694 586.23487262 -228.06097412 583.70294189 C-228.70421631 583.14477783 -229.3474585 582.58661377 -230.01019287 582.01153564 C-231.65175299 580.59985289 -233.30165234 579.19785903 -234.95550537 577.80059814 C-241.67102813 571.96609444 -247.92482764 566.27997204 -248.99847412 557.01544189 C-248.54616124 549.7784358 -243.8024214 543.23081553 -240.18597412 537.14044189 C-239.84388916 536.55552979 -239.5018042 535.97061768 -239.14935303 535.36798096 C-237.00459091 531.70284162 -234.809634 528.07014435 -232.59466553 524.44708252 C-230.91523063 521.69711702 -229.24396665 518.94224963 -227.57269287 516.18731689 C-225.09275705 512.10286577 -222.61251554 508.01860703 -220.12738037 503.93731689 C-219.60861328 503.08492432 -219.08984619 502.23253174 -218.55535889 501.35430908 C-217.46682018 499.59448219 -216.33380246 497.86218441 -215.18597412 496.14044189 C-214.01262855 489.26944394 -216.14369172 483.7209802 -218.98284912 477.57403564 C-219.56791229 476.25654076 -219.56791229 476.25654076 -220.16479492 474.91242981 C-221.4063937 472.12703395 -222.67086731 469.35272673 -223.93597412 466.57794189 C-224.77079559 464.71207054 -225.60414278 462.84553883 -226.43597412 460.97833252 C-228.65528614 456.0176877 -230.89264151 451.06731794 -233.18597412 446.14044189 C-233.69487183 445.00022583 -233.69487183 445.00022583 -234.21405029 443.8369751 C-234.54735352 443.11848389 -234.88065674 442.39999268 -235.22406006 441.659729 C-235.65763824 440.70398232 -235.65763824 440.70398232 -236.09997559 439.72892761 C-238.31799132 436.48464485 -242.04148033 436.05960458 -245.68597412 435.26544189 C-247.55476509 434.79136795 -249.42322811 434.31600024 -251.29144287 433.83966064 C-252.35669189 433.57975342 -253.42194092 433.31984619 -254.51947021 433.05206299 C-261.2320908 431.38307076 -267.90376676 429.56403268 -274.574646 427.73632812 C-276.9613597 427.08802331 -279.3524466 426.45839583 -281.74456787 425.8303833 C-298.7899799 421.27075883 -298.7899799 421.27075883 -303.8553009 415.1101532 C-305.79361078 410.78435729 -305.61236728 406.81129439 -305.59002686 402.12115479 C-305.59689011 401.11569107 -305.60375336 400.11022736 -305.61082458 399.07429504 C-305.62911174 395.75375205 -305.62525222 392.43368065 -305.61956787 389.11309814 C-305.62412874 386.80291083 -305.62943403 384.49272487 -305.63545227 382.18254089 C-305.64438716 377.34138476 -305.64195583 372.50039355 -305.63201904 367.65924072 C-305.62052917 361.45725173 -305.64073977 355.25583208 -305.66993618 349.05391788 C-305.68828766 344.28322232 -305.68800777 339.51266345 -305.68229866 334.74194145 C-305.68214532 332.45541014 -305.68820034 330.16886965 -305.70059013 327.8823719 C-305.71547786 324.68425977 -305.70483848 321.48720279 -305.68768311 318.28912354 C-305.69735107 317.34607361 -305.70701904 316.40302368 -305.71697998 315.43139648 C-305.65256454 309.69281493 -304.93141184 306.55182591 -301.18597412 302.14044189 C-293.17468687 295.90148991 -281.09367276 293.91229058 -271.49847412 291.14044189 C-257.01098141 286.92911402 -257.01098141 286.92911402 -242.60394287 282.45294189 C-240.84280151 281.89026611 -240.84280151 281.89026611 -239.04608154 281.31622314 C-235.41762105 279.82457434 -233.87478301 278.60926387 -232.21795654 275.07623291 C-229.12131737 266.13631699 -226.30101554 257.11348318 -223.49847412 248.07794189 C-222.75221175 245.67551129 -222.00518103 243.27333004 -221.25608826 240.8717804 C-220.79359924 239.3887864 -220.33276764 237.90527426 -219.87379456 236.42118835 C-218.29822074 231.36493514 -218.29822074 231.36493514 -217.18597412 229.14044189 C-215.86540345 221.54716054 -220.23856566 216.3011557 -224.18597412 210.14044189 C-225.09175169 208.70867475 -225.99664927 207.27635065 -226.90081787 205.84356689 C-228.4011963 203.46836438 -229.90292467 201.09408221 -231.40936279 198.72271729 C-235.26797451 192.63786771 -239.03619115 186.50309955 -242.74847412 180.32794189 C-243.24887207 179.49843018 -243.74927002 178.66891846 -244.26483154 177.81427002 C-252.78419604 163.58078662 -252.78419604 163.58078662 -251.18597412 154.14044189 C-249.70941375 150.96523687 -247.57290111 148.67802305 -245.18597412 146.14044189 C-244.50148193 145.35282471 -243.81698975 144.56520752 -243.11175537 143.75372314 C-235.80132499 135.50153039 -227.91094668 127.79804417 -220.0668335 120.05792236 C-215.5364125 115.56980446 -211.16207768 111.04658194 -207.01409912 106.20440674 C-203.13107321 101.82044559 -198.94914116 97.71906477 -194.81097412 93.57794189 C-193.91636475 92.67108643 -193.02175537 91.76423096 -192.10003662 90.82989502 C-176.36495211 75.06050436 -176.36495211 75.06050436 -167.97943115 74.90167236 C-163.40701323 74.96336051 -159.64062544 76.09911538 -155.49066162 77.96075439 C-154.77457733 78.2688504 -154.05849304 78.57694641 -153.32070923 78.89437866 C-143.46879696 83.213699 -133.89708643 88.14334732 -124.31097412 93.01544189 C-121.46116338 94.45793274 -118.61046293 95.89862718 -115.75869751 97.33724976 C-114.00228754 98.22389375 -112.24712103 99.11300649 -110.49337769 100.00491333 C-109.70760345 100.40267975 -108.92182922 100.80044617 -108.11224365 101.21026611 C-107.42405548 101.55999481 -106.73586731 101.90972351 -106.02682495 102.27005005 C-101.76913476 104.28317287 -97.81379898 104.9341649 -93.18597412 104.14044189 C-89.26646065 102.4658834 -85.66371491 100.30689967 -81.99847412 98.14044189 C-70.40785633 91.5656731 -58.67638226 86.74291046 -46.10150146 82.42462158 C-44.29191576 81.80087844 -42.48866937 81.15882808 -40.68597412 80.51544189 C-39.72691162 80.19317627 -38.76784912 79.87091064 -37.77972412 79.53887939 C-33.27213887 77.10858493 -30.88121248 74.15890672 -29.23318481 69.37423706 C-28.32807679 65.90751253 -27.53561682 62.43095801 -26.77581787 58.92950439 C-26.32625618 56.97023324 -25.87668361 55.01096452 -25.42648411 53.05183983 C-24.80261012 50.31837968 -24.19412958 47.58158959 -23.5859375 44.84460449 C-22.52225644 40.06246179 -21.44547096 35.28335679 -20.35188293 30.50796509 C-19.77241501 27.97051792 -19.20310203 25.43072387 -18.64543152 22.88839722 C-14.81524097 6.03099757 -14.81524097 6.03099757 -7.18597412 1.14044189 C-4.44382908 0.22639355 -2.82357354 0.01134524 0 0 Z " fill="#2B3D48" transform="translate(460.18597412109375,155.85955810546875)"/>
<path d="M0 0 C8.43549719 3.85556288 14.97755301 11.78357752 21.4375 18.25 C22.27861328 19.09191895 23.11972656 19.93383789 23.98632812 20.80126953 C28.93646467 25.80052222 33.62329651 30.82060194 37.9453125 36.375 C40.93203728 40.19073964 44.10911379 43.84068441 47.28515625 47.49951172 C54.03666069 55.38204164 54.03666069 55.38204164 53.94140625 59.5859375 C50.65327119 68.01775273 36.77216668 74.38446411 29.35449219 79.40478516 C25.94482841 81.71489954 22.54450506 84.03863898 19.14306641 86.36083984 C16.3464514 88.26948396 13.54841085 90.1760213 10.75 92.08203125 C5.90560479 95.38194459 1.06453351 98.68669737 -3.77539062 101.99316406 C-6.54562354 103.88334012 -9.31945976 105.76812988 -12.09375 107.65234375 C-15.04954163 109.66153519 -17.98930706 111.68876615 -20.90625 113.75390625 C-22.49953125 114.86572266 -22.49953125 114.86572266 -24.125 116 C-24.99382813 116.61875 -25.86265625 117.2375 -26.7578125 117.875 C-29 119 -29 119 -31.3046875 118.6875 C-31.86414063 118.460625 -32.42359375 118.23375 -33 118 C-30.525 117.505 -30.525 117.505 -28 117 C-27.88398437 116.45859375 -27.76796875 115.9171875 -27.6484375 115.359375 C-24.67054838 104.52416397 -19.26319892 98.85744794 -10 93 C-7.9984809 91.64067131 -6.01049367 90.26286047 -4.02270508 88.88354492 C-1.95819356 87.45185054 0.11345064 86.03111458 2.1875 84.61328125 C8.56794509 80.24563962 14.92445236 75.84306092 21.13671875 71.23828125 C22.78080402 70.14567112 24.50015751 69.16819353 26.2265625 68.2109375 C31.01904243 65.50373993 35.29666059 62.14413415 39.65820312 58.80273438 C40.29048828 58.32771484 40.92277344 57.85269531 41.57421875 57.36328125 C42.13713623 56.93313721 42.70005371 56.50299316 43.2800293 56.05981445 C45.16777151 54.89662227 46.83507128 54.4270666 49 54 C43.30733782 46.6154999 37.5973391 39.33176477 31.265625 32.4765625 C29.39426855 30.43097631 27.5814447 28.35480338 25.7734375 26.25390625 C21.83490049 21.73976935 17.63392964 17.52251967 13.375 13.3125 C12.63765625 12.57966797 11.9003125 11.84683594 11.140625 11.09179688 C9.72594709 9.6859924 8.31031275 8.2811495 6.89355469 6.87744141 C4.58854562 4.59204691 2.29295203 2.29748355 0 0 Z " fill="#142530" transform="translate(699,292)"/>
<path d="M0 0 C0.33 0 0.66 0 1 0 C2.0442574 6.00617271 2.16117971 11.86486111 2.16796875 17.953125 C2.17129715 19.00796082 2.17462555 20.06279663 2.17805481 21.14959717 C2.18310562 23.3819536 2.18546371 25.61431755 2.18530273 27.84667969 C2.18746604 31.19739943 2.20557715 34.54777692 2.22460938 37.8984375 C2.26217837 52.3179794 2.09331998 66.84619187 -1 81 C-1.33 81 -1.66 81 -2 81 C-2.02887512 77.35418313 -2.04675585 73.70839537 -2.0625 70.0625 C-2.07087891 69.02158203 -2.07925781 67.98066406 -2.08789062 66.90820312 C-2.09272461 65.42416992 -2.09272461 65.42416992 -2.09765625 63.91015625 C-2.10289307 62.99371338 -2.10812988 62.07727051 -2.11352539 61.13305664 C-2 59 -2 59 -1 58 C-0.87669912 56.1903226 -0.82209817 54.37592163 -0.79467773 52.56225586 C-0.77473251 51.40112778 -0.75478729 50.23999969 -0.73423767 49.04368591 C-0.71752518 47.780168 -0.70081268 46.51665009 -0.68359375 45.21484375 C-0.66281265 43.92888809 -0.64203156 42.64293243 -0.62062073 41.31800842 C-0.56533824 37.89364096 -0.51595639 34.4692125 -0.46777344 31.04473877 C-0.41760335 27.55255686 -0.3618939 24.0604639 -0.30664062 20.56835938 C-0.1989836 13.71231667 -0.09755551 6.85619367 0 0 Z " fill="#243843" transform="translate(807,470)"/>
<path d="M0 0 C0 0.66 0 1.32 0 2 C-0.69335449 2.28085449 -1.38670898 2.56170898 -2.10107422 2.85107422 C-24.33300052 11.91070363 -44.3027378 21.86247534 -63 37 C-63.66 36.67 -64.32 36.34 -65 36 C-64.3125 34.0625 -64.3125 34.0625 -63 32 C-60.375 31.25 -60.375 31.25 -58 31 C-57.67 30.01 -57.34 29.02 -57 28 C-56.01 27.67 -55.02 27.34 -54 27 C-53.505 26.484375 -53.01 25.96875 -52.5 25.4375 C-51 24 -51 24 -48 24 C-47.67 23.01 -47.34 22.02 -47 21 C-45.68 21 -44.36 21 -43 21 C-43 20.34 -43 19.68 -43 19 C-41.35 18.67 -39.7 18.34 -38 18 C-38 17.34 -38 16.68 -38 16 C-36.35 15.67 -34.7 15.34 -33 15 C-33 14.34 -33 13.68 -33 13 C-31.3767313 12.3291288 -29.75132422 11.66342971 -28.125 11 C-27.22007812 10.62875 -26.31515625 10.2575 -25.3828125 9.875 C-23 9 -23 9 -21 9 C-21 8.34 -21 7.68 -21 7 C-20.34 7 -19.68 7 -19 7 C-18.67 6.34 -18.34 5.68 -18 5 C-16.109375 4.21875 -16.109375 4.21875 -13.75 3.5 C-11.15698967 2.69045478 -8.69341014 1.87055095 -6.1875 0.8125 C-4 0 -4 0 0 0 Z " fill="#0D1B25" transform="translate(455,333)"/>
<path d="M0 0 C-3.19427799 3.05539634 -6.29963341 3.64397809 -10.48828125 4.4609375 C-13.98220325 5.21079945 -17.34245618 6.3094624 -20.73828125 7.4140625 C-23 8 -23 8 -27 8 C-27 8.66 -27 9.32 -27 10 C-27.61746094 10.12117188 -28.23492187 10.24234375 -28.87109375 10.3671875 C-34.5999224 11.50074568 -40.30352707 12.71369966 -46 14 C-46 13.01 -46 12.02 -46 11 C-40.25680709 9.25812776 -34.50939274 7.53127074 -28.75756836 5.81811523 C-26.80191088 5.23334722 -24.84746536 4.6445099 -22.89428711 4.05151367 C-20.08496621 3.19936014 -17.27159767 2.36198403 -14.45703125 1.52734375 C-13.58601273 1.25969711 -12.7149942 0.99205048 -11.81758118 0.71629333 C-4.30562161 -1.48403251 -4.30562161 -1.48403251 0 0 Z " fill="#36505E" transform="translate(218,441)"/>
<path d="M0 0 C0.66 0.33 1.32 0.66 2 1 C-14.70826663 13.39778016 -34.14451162 24.58448075 -54 31 C-54.99 30.67 -55.98 30.34 -57 30 C-56.34 30 -55.68 30 -55 30 C-55 29.34 -55 28.68 -55 28 C-47.71428571 24.57142857 -47.71428571 24.57142857 -43 25 C-43 24.34 -43 23.68 -43 23 C-41.783125 22.649375 -40.56625 22.29875 -39.3125 21.9375 C-33.7451847 20.11127874 -28.80067219 17.29441482 -23.72265625 14.42578125 C-21 13 -21 13 -19 13 C-19 12.34 -19 11.68 -19 11 C-18.01 11 -17.02 11 -16 11 C-16 10.34 -16 9.68 -16 9 C-14.71086513 8.32845067 -13.41859796 7.66291141 -12.125 7 C-11.40570312 6.62875 -10.68640625 6.2575 -9.9453125 5.875 C-8 5 -8 5 -6 5 C-6 4.34 -6 3.68 -6 3 C-4.03533587 1.93224776 -2.03144641 0.93446535 0 0 Z " fill="#0C1821" transform="translate(684,751)"/>
<path d="M0 0 C0.66 0.33 1.32 0.66 2 1 C1.66666667 3.33333333 1.33333333 5.66666667 1 8 C0.7834375 9.8253125 0.7834375 9.8253125 0.5625 11.6875 C0 15 0 15 -0.91796875 16.76953125 C-2.88859998 20.83173497 -3.70444924 25.32352974 -4.8046875 29.6875 C-6.04691882 33.13002341 -7.14343514 34.75955698 -10 37 C-10.66 37 -11.32 37 -12 37 C-12 37.66 -12 38.32 -12 39 C-13.32 38.34 -14.64 37.68 -16 37 C-15.38092773 36.74790771 -14.76185547 36.49581543 -14.12402344 36.23608398 C-7.45891763 32.35729885 -5.79872158 19.29312944 -3.75 12.4375 C-3.38648438 11.23802734 -3.02296875 10.03855469 -2.6484375 8.80273438 C-1.76044145 5.87001056 -0.87776872 2.93579779 0 0 Z " fill="#324C5B" transform="translate(238,400)"/>
<path d="M0 0 C0 2 0 2 -2 4.1875 C-4.9263619 7.00578604 -8.01140391 9.64148234 -11.078125 12.3046875 C-16.01778152 16.66202679 -20.07707829 21.41607396 -24 26.6875 C-25.93376786 28.92341909 -27.28356557 29.93282933 -30 31 C-29.64808512 25.86998153 -26.8150998 23.24815762 -23.3203125 19.82421875 C-22.7517453 19.25419632 -22.1831781 18.68417389 -21.59738159 18.09687805 C-20.39672406 16.8978767 -19.19112436 15.70380658 -17.98095703 14.5144043 C-16.12616465 12.68864642 -14.29083047 10.84486395 -12.45703125 8.99804688 C-11.28756903 7.83481978 -10.11703206 6.67267199 -8.9453125 5.51171875 C-8.39521515 4.95868576 -7.8451178 4.40565277 -7.27835083 3.83586121 C-3.34602923 0 -3.34602923 0 0 0 Z " fill="#244455" transform="translate(247,272)"/>
<path d="M0 0 C1.07499756 0.0407666 2.14999512 0.0815332 3.25756836 0.12353516 C5.02583984 0.18927734 5.02583984 0.18927734 6.82983398 0.25634766 C8.69478516 0.33369141 8.69478516 0.33369141 10.59741211 0.41259766 C12.42175781 0.47833984 12.42175781 0.47833984 14.28295898 0.54541016 C20.42203798 0.78524395 26.45551365 1.14200587 32.53491211 2.03759766 C32.53491211 2.36759766 32.53491211 2.69759766 32.53491211 3.03759766 C15.37491211 3.36759766 -1.78508789 3.69759766 -19.46508789 4.03759766 C-19.46508789 3.70759766 -19.46508789 3.37759766 -19.46508789 3.03759766 C-14.67639274 1.02130496 -10.63701855 0.88968375 -5.53930664 1.06494141 C-2.85084864 1.02950034 -2.83044287 0.04317007 0 0 Z " fill="#0D1B24" transform="translate(497.465087890625,324.96240234375)"/>
<path d="M0 0 C1 3 1 3 -0.22265625 5.94140625 C-0.82990053 7.15148588 -1.44366187 8.35830828 -2.0625 9.5625 C-7.31721232 20.25490479 -10.79130207 31.55112477 -14 43 C-14.33 43 -14.66 43 -15 43 C-15 40.03 -15 37.06 -15 34 C-14.34 34 -13.68 34 -13 34 C-13.103125 33.113125 -13.20625 32.22625 -13.3125 31.3125 C-13.29324428 21.76166383 -6.71758974 6.71758974 0 0 Z " fill="#101F29" transform="translate(345,422)"/>
<path d="M0 0 C0 0.66 0 1.32 0 2 C-3.33089813 2.36071938 -6.66460184 2.68374859 -10 3 C-11.05058594 3.10699219 -12.10117187 3.21398437 -13.18359375 3.32421875 C-22.564349 4.15926864 -31.63865044 3.73666794 -41 3 C-40.34 2.01 -39.68 1.02 -39 0 C-35.9465332 -0.44824219 -35.9465332 -0.44824219 -32.05078125 -0.546875 C-31.35993942 -0.56719788 -30.6690976 -0.58752075 -29.95732117 -0.60845947 C-28.4923099 -0.64870392 -27.02708938 -0.6818568 -25.56176758 -0.70849609 C-23.33800378 -0.7495294 -21.11570506 -0.81221985 -18.89257812 -0.87890625 C-12.46931385 -1.04303011 -6.34518047 -1.05112701 0 0 Z " fill="#536A76" transform="translate(531,694)"/>
<path d="M0 0 C6.40350615 0.33043003 11.33505259 0.79807321 17 4 C18.42852036 4.50530835 19.86723824 4.98227986 21.3125 5.4375 C34.03809438 9.55714157 34.03809438 9.55714157 37 14 C33.64198537 13.40845179 30.66589698 12.57473719 27.5234375 11.2578125 C26.69239502 10.91508301 25.86135254 10.57235352 25.00512695 10.21923828 C24.13718506 9.85813965 23.26924316 9.49704102 22.375 9.125 C15.92733726 6.47863666 9.62712509 4.077841 2.80078125 2.5703125 C2.20652344 2.38210938 1.61226562 2.19390625 1 2 C0.67 1.34 0.34 0.68 0 0 Z " fill="#12202A" transform="translate(553,332)"/>
<path d="M0 0 C1.87769525 5.63308575 -2.47050028 11.85296951 -5 17 C-6.82588512 20.56902414 -8.71031037 24.10290476 -10.625 27.625 C-11.09196289 28.48988037 -11.55892578 29.35476074 -12.04003906 30.24584961 C-14.31252823 34.34868586 -16.37423704 37.9189526 -20 41 C-19.52789275 36.75103476 -19.03297519 34.91165618 -16 32 C-15.67 31.01 -15.34 30.02 -15 29 C-14 26 -14 26 -12.62890625 24.671875 C-7.52571451 19.43406669 -4.60317379 11.05396469 -3 4 C-2.34 4 -1.68 4 -1 4 C-0.67 2.68 -0.34 1.36 0 0 Z " fill="#101F29" transform="translate(785,624)"/>
<path d="M0 0 C0.8357959 0.54309814 0.8357959 0.54309814 1.68847656 1.09716797 C1.05296875 1.35111328 0.41746094 1.60505859 -0.23730469 1.86669922 C-1.95245563 2.55319547 -3.6670368 3.24113619 -5.37939453 3.93457031 C-7.74960001 4.89226486 -10.12405579 5.83885085 -12.49902344 6.78466797 C-13.31822266 7.11789063 -14.13742187 7.45111328 -14.98144531 7.79443359 C-15.76455078 8.10445312 -16.54765625 8.41447266 -17.35449219 8.73388672 C-18.06629639 9.01965576 -18.77810059 9.3054248 -19.51147461 9.59985352 C-21.31152344 10.09716797 -21.31152344 10.09716797 -23.31152344 9.09716797 C-23.31152344 8.43716797 -23.31152344 7.77716797 -23.31152344 7.09716797 C-19.90459862 5.69709855 -16.48483542 4.33162214 -13.06152344 2.97216797 C-12.0934375 2.57384766 -11.12535156 2.17552734 -10.12792969 1.76513672 C-9.19335938 1.39775391 -8.25878906 1.03037109 -7.29589844 0.65185547 C-6.43706055 0.30622559 -5.57822266 -0.0394043 -4.69335938 -0.39550781 C-2.31152344 -0.90283203 -2.31152344 -0.90283203 0 0 Z " fill="#36505F" transform="translate(414.3115234375,239.90283203125)"/>
<path d="M0 0 C1.25786706 3.5781788 0.72662775 5.86840452 -0.328125 9.46484375 C-0.78638672 11.03588867 -0.78638672 11.03588867 -1.25390625 12.63867188 C-1.74697266 14.2715918 -1.74697266 14.2715918 -2.25 15.9375 C-2.71986328 17.56461914 -2.71986328 17.56461914 -3.19921875 19.22460938 C-4.6896609 24.25562468 -6.14318708 28.56105304 -9 33 C-10.47383548 30.05232905 -9.4548237 28.20288784 -8.625 25.0625 C-8.34914063 24.00160156 -8.07328125 22.94070313 -7.7890625 21.84765625 C-7.24474701 19.88327017 -6.64460003 17.9338001 -6 16 C-5.34 16 -4.68 16 -4 16 C-3.87882813 15.09636719 -3.75765625 14.19273437 -3.6328125 13.26171875 C-3.46523438 12.08222656 -3.29765625 10.90273438 -3.125 9.6875 C-2.96257813 8.51574219 -2.80015625 7.34398437 -2.6328125 6.13671875 C-2 3 -2 3 0 0 Z " fill="#11202A" transform="translate(579,833)"/>
<path d="M0 0 C0.66 0.33 1.32 0.66 2 1 C-13.81245526 27.20830351 -13.81245526 27.20830351 -21 32 C-19.6877003 26.87010116 -17.73686547 24.65382402 -14 21 C-9.25932313 14.90738887 -9.25932313 14.90738887 -6 8 C-5.34 8 -4.68 8 -4 8 C-3.71125 7.236875 -3.4225 6.47375 -3.125 5.6875 C-2 3 -2 3 0 0 Z " fill="#0F1C26" transform="translate(763,666)"/>
<path d="M0 0 C0.66 0.66 1.32 1.32 2 2 C-1.75988177 6.60585517 -5.63696367 10.57123921 -10.1640625 14.421875 C-12.2145891 16.18445531 -14.12772229 18.04971072 -16 20 C-16.66 19.34 -17.32 18.68 -18 18 C-12.06 12.06 -6.12 6.12 0 0 Z " fill="#315060" transform="translate(276,239)"/>
<path d="M0 0 C0.33 0 0.66 0 1 0 C0.40863458 7.0744826 -1.03465455 13.60642172 -2.9375 20.4375 C-3.20240234 21.42943359 -3.46730469 22.42136719 -3.74023438 23.44335938 C-3.99998047 24.38888672 -4.25972656 25.33441406 -4.52734375 26.30859375 C-4.76187256 27.16251709 -4.99640137 28.01644043 -5.23803711 28.89624023 C-6 31 -6 31 -8 33 C-6 23 -4 13 -2 3 C-1.34 3 -0.68 3 0 3 C0 2.01 0 1.02 0 0 Z " fill="#0E1B25" transform="translate(801,569)"/>
<path d="M0 0 C-0.67546875 0.21914063 -1.3509375 0.43828125 -2.046875 0.6640625 C-7.86928485 2.73387872 -11.20739676 4.19138525 -14 10 C-15.09447857 12.64777786 -16.06489674 15.28820055 -17 18 C-17.33 18 -17.66 18 -18 18 C-18.25 12.375 -18.25 12.375 -16 9 C-15.83286431 6.37468476 -15.83286431 6.37468476 -16 4 C-14.56328432 3.35242375 -13.12559584 2.70700547 -11.6875 2.0625 C-10.88699219 1.70285156 -10.08648438 1.34320312 -9.26171875 0.97265625 C-5.65166739 -0.57985288 -3.75303128 -1.16473384 0 0 Z " fill="#15262F" transform="translate(605,790)"/>
<path d="M0 0 C4.455 0.99 4.455 0.99 9 2 C9 2.66 9 3.32 9 4 C10.8871875 4.1546875 10.8871875 4.1546875 12.8125 4.3125 C16.4014413 4.60667552 17.54677418 5.44455644 20 8 C22.03077684 8.98628417 22.03077684 8.98628417 24.1875 9.6875 C25.26064453 10.06455078 25.26064453 10.06455078 26.35546875 10.44921875 C26.89816406 10.63097656 27.44085938 10.81273437 28 11 C24.42486214 12.28731739 22.55930071 11.72141683 19.12109375 10.234375 C17.73954102 9.64076172 17.73954102 9.64076172 16.33007812 9.03515625 C15.37552734 8.61105469 14.42097656 8.18695312 13.4375 7.75 C12.47908203 7.34136719 11.52066406 6.93273437 10.53320312 6.51171875 C6.24703488 4.64346602 3.35568419 3.35568419 0 0 Z " fill="#12202C" transform="translate(387,775)"/>
<path d="M0 0 C0 0.99 0 1.98 0 3 C-0.66 2.67 -1.32 2.34 -2 2 C-1.34 1.34 -0.68 0.68 0 0 Z M-4 2 C-3.34 2.66 -2.68 3.32 -2 4 C-3.21158101 5.4471662 -4.42340962 6.89412611 -5.63671875 8.33984375 C-6.81804718 9.77842421 -7.94562122 11.26082829 -9.0625 12.75 C-10.96110856 14.95483575 -12.32258249 15.94815741 -15 17 C-14.582687 12.07215495 -12.45014073 10.0222855 -8.9375 6.6875 C-8.01839844 5.80449219 -7.09929687 4.92148437 -6.15234375 4.01171875 C-5.44207031 3.34785156 -4.73179687 2.68398438 -4 2 Z " fill="#3C5665" transform="translate(232,286)"/>
<path d="M0 0 C0.66 0.99 1.32 1.98 2 3 C1.39031953 4.68834592 0.71162443 6.35202764 0 8 C-0.165 9.155 -0.33 10.31 -0.5 11.5 C-0.95320207 14.6724145 -1.68257806 17.10167172 -3 20 C-5.18602942 16.5415057 -5.05410732 14.45533873 -4.25 10.5 C-3.97929687 9.09234375 -3.97929687 9.09234375 -3.703125 7.65625 C-2.94703894 4.7999249 -2.12717449 2.12717449 0 0 Z " fill="#3F5867" transform="translate(446,168)"/>
<path d="M0 0 C1 3 1 3 0.24316406 5.00537109 C-0.16192383 5.75383301 -0.56701172 6.50229492 -0.984375 7.2734375 C-1.42523437 8.0984375 -1.86609375 8.9234375 -2.3203125 9.7734375 C-3.02800781 11.06121094 -3.02800781 11.06121094 -3.75 12.375 C-4.20632813 13.22578125 -4.66265625 14.0765625 -5.1328125 14.953125 C-7.32866622 19.02751253 -9.56810741 23.060334 -12 27 C-12.66 26.67 -13.32 26.34 -14 26 C-13.68248779 25.42556152 -13.36497559 24.85112305 -13.0378418 24.25927734 C-11.58649188 21.63186547 -10.13698201 19.00344278 -8.6875 16.375 C-8.18798828 15.47136719 -7.68847656 14.56773437 -7.17382812 13.63671875 C-4.69117226 9.13176706 -2.2511927 4.62531743 0 0 Z " fill="#40535F" transform="translate(689,600)"/>
<path d="M0 0 C0.99 0 1.98 0 3 0 C1.4945581 3.56935418 -0.59287562 5.77091235 -3.375 8.4375 C-6.49276719 11.47995881 -9.39740767 14.49215817 -12 18 C-12.99 17.67 -13.98 17.34 -15 17 C-14.01 15.515 -14.01 15.515 -13 14 C-12.34 14.33 -11.68 14.66 -11 15 C-10.9175 14.401875 -10.835 13.80375 -10.75 13.1875 C-9.7861311 10.3762157 -8.40044903 9.67304023 -6 8 C-5.34 7.01 -4.68 6.02 -4 5 C-2.0625 2.3125 -2.0625 2.3125 0 0 Z " fill="#0C1923" transform="translate(376,380)"/>
<path d="M0 0 C4.38775939 6.58163908 1.3676868 15.67310641 0 23 C-0.33 23 -0.66 23 -1 23 C-1.02887512 19.35418313 -1.04675585 15.70839537 -1.0625 12.0625 C-1.07087891 11.02158203 -1.07925781 9.98066406 -1.08789062 8.90820312 C-1.09272461 7.42416992 -1.09272461 7.42416992 -1.09765625 5.91015625 C-1.10289307 4.99371338 -1.10812988 4.07727051 -1.11352539 3.13305664 C-1 1 -1 1 0 0 Z " fill="#13222C" transform="translate(806,528)"/>
<path d="M0 0 C0 3.49336818 -0.69545146 4.39644434 -2.625 7.23046875 C-3.16640625 8.03291016 -3.7078125 8.83535156 -4.265625 9.66210938 C-5.12414062 10.91217773 -5.12414062 10.91217773 -6 12.1875 C-6.57234375 13.03248047 -7.1446875 13.87746094 -7.734375 14.74804688 C-9.15013971 16.83629982 -10.57218082 18.91997883 -12 21 C-12.33 19.68 -12.66 18.36 -13 17 C-12.34 17 -11.68 17 -11 17 C-10.67 15.35 -10.34 13.7 -10 12 C-9.01 11.67 -8.02 11.34 -7 11 C-7 9.68 -7 8.36 -7 7 C-6.34 7 -5.68 7 -5 7 C-5 6.34 -5 5.68 -5 5 C-3.37446717 3.29319053 -1.70884005 1.62339805 0 0 Z " fill="#0F1C25" transform="translate(360,400)"/>
<path d="M0 0 C-2.73615089 2.73615089 -5.70588021 2.98216731 -9.375 3.6875 C-10.04789062 3.82994141 -10.72078125 3.97238281 -11.4140625 4.11914062 C-14.87723311 4.80427575 -17.64883754 5.28031592 -21 4 C-19.02 3.67 -17.04 3.34 -15 3 C-15 2.34 -15 1.68 -15 1 C-13.44033408 0.63355422 -11.87707349 0.28239138 -10.3125 -0.0625 C-9.44238281 -0.25972656 -8.57226562 -0.45695312 -7.67578125 -0.66015625 C-4.83998724 -1.02032279 -2.75210018 -0.70909969 0 0 Z " fill="#12222B" transform="translate(477,329)"/>
<path d="M0 0 C3.34252724 -0.07427838 5.8035914 -0.06546953 9 1 C11.33006911 1.35543427 13.66327016 1.6913753 16 2 C16 2.66 16 3.32 16 4 C16.99 4.33 17.98 4.66 19 5 C12.97099313 4.48758893 6.97995357 3.930215 1 3 C0.67 2.01 0.34 1.02 0 0 Z " fill="#1D2B35" transform="translate(533,327)"/>
<path d="M0 0 C0.99 0 1.98 0 3 0 C1.89309248 6.40593286 0.66054831 12.71363856 -1 19 C-3.47007945 15.29488082 -3.00245317 14.31602977 -2.1875 10.0625 C-1.99542969 9.02222656 -1.80335938 7.98195312 -1.60546875 6.91015625 C-1.12233548 4.58799958 -0.60238314 2.29347709 0 0 Z " fill="#3C5664" transform="translate(436,202)"/>
<path d="M0 0 C0.33 0.66 0.66 1.32 1 2 C1.66 2.33 2.32 2.66 3 3 C2.24029922 6.35867712 1.12906745 9.52123658 -0.0625 12.75 C-0.42472656 13.73484375 -0.78695312 14.7196875 -1.16015625 15.734375 C-1.43730469 16.48203125 -1.71445313 17.2296875 -2 18 C-4 15 -4 15 -3.57421875 12.6953125 C-3.13529297 11.42300781 -3.13529297 11.42300781 -2.6875 10.125 C-1.54996218 6.7587116 -0.63339712 3.49936229 0 0 Z " fill="#385261" transform="translate(244,380)"/>
<path d="M0 0 C2.76223278 2.76223278 2.57856291 5.20706617 3 9 C3.99 9.33 4.98 9.66 6 10 C6 14.62 6 19.24 6 24 C4.24632763 21.36949145 3.61808596 20.06925023 2.9296875 17.12890625 C2.75566406 16.38962891 2.58164062 15.65035156 2.40234375 14.88867188 C2.22832031 14.12103516 2.05429687 13.35339844 1.875 12.5625 C1.69324219 11.79873047 1.51148438 11.03496094 1.32421875 10.24804688 C0.49229538 6.65451323 0 3.73619355 0 0 Z " fill="#0D1D29" transform="translate(432,797)"/>
<path d="M0 0 C0.53625 0.37125 1.0725 0.7425 1.625 1.125 C0.79355469 1.41503906 0.79355469 1.41503906 -0.0546875 1.7109375 C-0.77914062 1.97132813 -1.50359375 2.23171875 -2.25 2.5 C-2.96929688 2.75523437 -3.68859375 3.01046875 -4.4296875 3.2734375 C-6.55657994 4.06377783 -6.55657994 4.06377783 -8.375 6.125 C-11 6.25 -11 6.25 -13.375 6.125 C-13.375 5.465 -13.375 4.805 -13.375 4.125 C-9.46886811 1.36773043 -4.77150823 -1.75792408 0 0 Z " fill="#3D5563" transform="translate(568.375,684.875)"/>
<path d="M0 0 C0.99 0.33 1.98 0.66 3 1 C1.59742285 3.80515429 -0.38110199 4.03174952 -3.22460938 5.00195312 C-4.25811523 5.34129883 -4.25811523 5.34129883 -5.3125 5.6875 C-6.32860352 6.04424805 -6.32860352 6.04424805 -7.36523438 6.40820312 C-13.54151937 8.46696479 -13.54151937 8.46696479 -17 7 C-11.326858 4.54582388 -6.18160604 2.53753096 0 2 C0 1.34 0 0.68 0 0 Z " fill="#0B1720" transform="translate(623,781)"/>
<path d="M0 0 C0 3 0 3 -2.30078125 5.6640625 C-3.2969247 6.65887598 -4.30120803 7.64558987 -5.3125 8.625 C-5.81201172 9.12773438 -6.31152344 9.63046875 -6.82617188 10.1484375 C-9.19483114 12.4825865 -10.80481278 13.93493759 -14 15 C-12.46000416 11.16751036 -10.08835992 9.05935935 -7 6.375 C-6.113125 5.59898437 -5.22625 4.82296875 -4.3125 4.0234375 C-3.1678125 3.02183594 -3.1678125 3.02183594 -2 2 C-1.34 1.34 -0.68 0.68 0 0 Z " fill="#4F6571" transform="translate(650,656)"/>
<path d="M0 0 C1.65 0 3.3 0 5 0 C5 0.66 5 1.32 5 2 C10.445 1.01 10.445 1.01 16 0 C16 0.66 16 1.32 16 2 C12.34387956 4.33991708 9.26792624 4.37437949 5 4 C2.0625 2.5625 2.0625 2.5625 0 1 C0 0.67 0 0.34 0 0 Z " fill="#1C303A" transform="translate(291,796)"/>
<path d="M0 0 C0.99 0.66 1.98 1.32 3 2 C2.57847656 2.47050781 2.15695312 2.94101562 1.72265625 3.42578125 C1.17480469 4.04839844 0.62695312 4.67101562 0.0625 5.3125 C-0.48277344 5.92738281 -1.02804687 6.54226563 -1.58984375 7.17578125 C-3.20081559 9.05241958 -3.20081559 9.05241958 -4 12 C-3.34 12 -2.68 12 -2 12 C-2 12.66 -2 13.32 -2 14 C-3.9375 13.25 -3.9375 13.25 -6 12 C-6.75 9.875 -6.75 9.875 -7 8 C-6.401875 7.79375 -5.80375 7.5875 -5.1875 7.375 C-2.18981233 5.49073918 -1.38638224 3.18867916 0 0 Z " fill="#172833" transform="translate(484,549)"/>
<path d="M0 0 C1.21236328 0.01353516 1.21236328 0.01353516 2.44921875 0.02734375 C3.37154297 0.04474609 3.37154297 0.04474609 4.3125 0.0625 C3.3225 0.5575 3.3225 0.5575 2.3125 1.0625 C2.3125 1.7225 2.3125 2.3825 2.3125 3.0625 C-0.9875 3.3925 -4.2875 3.7225 -7.6875 4.0625 C-7.6875 3.0725 -7.6875 2.0825 -7.6875 1.0625 C-4.80538698 0.10179566 -2.98899956 -0.04331883 0 0 Z " fill="#3B5665" transform="translate(292.6875,230.9375)"/>
<path d="M0 0 C0.99 0 1.98 0 3 0 C2.67 1.98 2.34 3.96 2 6 C2.66 6.33 3.32 6.66 4 7 C3.01 7 2.02 7 1 7 C0.67 8.32 0.34 9.64 0 11 C-0.66 11 -1.32 11 -2 11 C-1.34 7.37 -0.68 3.74 0 0 Z " fill="#385361" transform="translate(439,190)"/>
<path d="M0 0 C0 0.66 0 1.32 0 2 C-1.72681437 2.50806447 -3.45657979 3.00610467 -5.1875 3.5 C-6.63189453 3.91765625 -6.63189453 3.91765625 -8.10546875 4.34375 C-10.85345876 4.96677608 -13.19598416 5.12302812 -16 5 C-15.67 4.34 -15.34 3.68 -15 3 C-12.3828125 2.1484375 -12.3828125 2.1484375 -9.125 1.375 C-7.52011719 0.98441406 -7.52011719 0.98441406 -5.8828125 0.5859375 C-3 0 -3 0 0 0 Z " fill="#4C616D" transform="translate(566,707)"/>
<path d="M0 0 C0.99 0 1.98 0 3 0 C3.99 3.96 4.98 7.92 6 12 C5.01 12 4.02 12 3 12 C3 11.34 3 10.68 3 10 C2.34 9.67 1.68 9.34 1 9 C1.33 7.68 1.66 6.36 2 5 C1.34 4.67 0.68 4.34 0 4 C0 2.68 0 1.36 0 0 Z " fill="#354E5C" transform="translate(576,195)"/>
<path d="M0 0 C0.33 0 0.66 0 1 0 C1.19392201 5.52677733 0.7479503 9.75614911 -1 15 C-1.66 14.67 -2.32 14.34 -3 14 C-2.67 10.7 -2.34 7.4 -2 4 C-1.34 4 -0.68 4 0 4 C0 2.68 0 1.36 0 0 Z " fill="#0F1D28" transform="translate(804,552)"/>
<path d="M0 0 C2.31 0.33 4.62 0.66 7 1 C7 1.66 7 2.32 7 3 C7.969375 3.28875 8.93875 3.5775 9.9375 3.875 C13 5 13 5 14 7 C10.2397015 6.41892368 7.46964968 5.34800504 4.1875 3.4375 C3.39730469 2.98246094 2.60710937 2.52742187 1.79296875 2.05859375 C1.20128906 1.70925781 0.60960937 1.35992188 0 1 C0 0.67 0 0.34 0 0 Z " fill="#162530" transform="translate(372,768)"/>
<path d="M0 0 C1.85772162 0.08984301 3.71247985 0.24611861 5.5625 0.4375 C7.08037109 0.59025391 7.08037109 0.59025391 8.62890625 0.74609375 C9.80259766 0.87177734 9.80259766 0.87177734 11 1 C11 1.66 11 2.32 11 3 C5.72 3 0.44 3 -5 3 C-3.68 2.34 -2.36 1.68 -1 1 C-0.67 0.67 -0.34 0.34 0 0 Z " fill="#455864" transform="translate(507,714)"/>
<path d="M0 0 C0 4.03381023 -1.59573562 5.49433637 -4 8.6875 C-4.7425 9.68136719 -5.485 10.67523437 -6.25 11.69921875 C-7.11625 12.83810547 -7.11625 12.83810547 -8 14 C-8.33 13.01 -8.66 12.02 -9 11 C-8.34 11 -7.68 11 -7 11 C-6.6596875 9.948125 -6.6596875 9.948125 -6.3125 8.875 C-4.68343133 5.30656387 -2.59359269 2.93485489 0 0 Z " fill="#485C68" transform="translate(674,628)"/>
<path d="M0 0 C0.66 0.66 1.32 1.32 2 2 C1.67 2.99 1.34 3.98 1 5 C0.34 5 -0.32 5 -1 5 C-0.67 3.35 -0.34 1.7 0 0 Z M-3 3 C-2.34 3.99 -1.68 4.98 -1 6 C-1.99 7.485 -1.99 7.485 -3 9 C-3.66 9 -4.32 9 -5 9 C-5 9.66 -5 10.32 -5 11 C-6.32 10.34 -7.64 9.68 -9 9 C-8.38125 8.7525 -7.7625 8.505 -7.125 8.25 C-4.64931313 6.79371361 -4.04874998 5.62187494 -3 3 Z " fill="#3A5462" transform="translate(231,428)"/>
<path d="M0 0 C0.66 0 1.32 0 2 0 C1.52060632 4.71403788 1.03165952 8.66579301 -1 13 C-1.33 13 -1.66 13 -2 13 C-2.19294408 8.17639811 -1.75747614 4.50353262 0 0 Z " fill="#101E28" transform="translate(582,819)"/>
<path d="M0 0 C2.0625 0.4375 2.0625 0.4375 4 1 C-1.75 6 -1.75 6 -4 6 C-4.33 6.99 -4.66 7.98 -5 9 C-5.66 8.01 -6.32 7.02 -7 6 C-5.62209707 3.24419414 -3.62850007 2.51138754 -1 1 C-0.67 0.67 -0.34 0.34 0 0 Z " fill="#3A5261" transform="translate(428,231)"/>
<path d="M0 0 C1.49828872 3.88235819 0.43110582 6.43449288 -0.9375 10.25 C-1.31777344 11.32765625 -1.69804688 12.4053125 -2.08984375 13.515625 C-2.39019531 14.33546875 -2.69054687 15.1553125 -3 16 C-4.10408478 12.68774566 -3.88103713 11.3529277 -3.1875 8 C-3.01605469 7.13375 -2.84460938 6.2675 -2.66796875 5.375 C-2 3 -2 3 0 0 Z " fill="#0C1822" transform="translate(579,833)"/>
<path d="M0 0 C-1.279673 2.55934601 -2.24201036 2.6989233 -4.875 3.6875 C-5.57367187 3.95949219 -6.27234375 4.23148438 -6.9921875 4.51171875 C-9 5 -9 5 -12 4 C-11.34 4 -10.68 4 -10 4 C-10 3.34 -10 2.68 -10 2 C-3.375 -1.125 -3.375 -1.125 0 0 Z " fill="#14222C" transform="translate(639,777)"/>
<path d="M0 0 C0.66 0.66 1.32 1.32 2 2 C1.07038578 3.15224028 0.1309875 4.29659176 -0.8125 5.4375 C-1.59560547 6.39462891 -1.59560547 6.39462891 -2.39453125 7.37109375 C-4 9 -4 9 -7 10 C-6.42424336 6.64749299 -5.40693737 5.06181371 -2.9375 2.75 C-2.38964844 2.22921875 -1.84179688 1.7084375 -1.27734375 1.171875 C-0.64505859 0.59179688 -0.64505859 0.59179688 0 0 Z " fill="#365262" transform="translate(256,259)"/>
<path d="M0 0 C3.71888239 0.50712033 6.73454239 1.11608215 10 3 C10 3.99 10 4.98 10 6 C6.40992874 4.66654496 3.20429093 3.1056769 0 1 C0 0.67 0 0.34 0 0 Z " fill="#344B5A" transform="translate(324,245)"/>
<path d="M0 0 C2.97531139 3.38103567 3.80882284 6.71176223 5 11 C5.66 11.66 6.32 12.32 7 13 C6.01 13.33 5.02 13.66 4 14 C-0.59225513 4.58997722 -0.59225513 4.58997722 0 0 Z " fill="#11202C" transform="translate(445,854)"/>
<path d="M0 0 C2 1 2 1 3.125 3.5625 C4.14837318 7.58289462 4.14258282 10.86509813 4 15 C2.1866078 11.79989612 1.47786026 8.86716157 0.875 5.25 C0.70742188 4.26515625 0.53984375 3.2803125 0.3671875 2.265625 C0.24601562 1.51796875 0.12484375 0.7703125 0 0 Z " fill="#162731" transform="translate(331,562)"/>
<path d="M0 0 C3.14031285 3.41338353 3.74525692 6.41462451 4 11 C3.34 11.66 2.68 12.32 2 13 C-0.28571429 4.57142857 -0.28571429 4.57142857 0 0 Z " fill="#0E1E29" transform="translate(440,831)"/>
<path d="M0 0 C0.99 0 1.98 0 3 0 C1.4169423 4.2742558 -1.50568404 6.26531794 -5 9 C-4.42636089 5.12793601 -2.65894107 2.81534937 0 0 Z " fill="#14242F" transform="translate(376,380)"/>
<path d="M0 0 C-3.53411321 2.12046792 -6.94393835 2.53199289 -11 3 C-11 2.01 -11 1.02 -11 0 C-7.01803543 -1.05404945 -4.01804691 -0.84098656 0 0 Z " fill="#435D69" transform="translate(554,690)"/>
<path d="M0 0 C0.66 1.32 1.32 2.64 2 4 C1.34 4.66 0.68 5.32 0 6 C-0.71408334 7.98356483 -1.38617742 9.98315437 -2 12 C-2.33 12 -2.66 12 -3 12 C-2.88648483 10.18674449 -2.75887039 8.37436643 -2.625 6.5625 C-2.55539062 5.55316406 -2.48578125 4.54382813 -2.4140625 3.50390625 C-2.27742187 2.67761719 -2.14078125 1.85132813 -2 1 C-1.34 0.67 -0.68 0.34 0 0 Z " fill="#152632" transform="translate(676,564)"/>
<path d="M0 0 C1.21065165 3.63195496 0.62784815 5.06531629 -0.4375 8.6875 C-0.86869141 10.17830078 -0.86869141 10.17830078 -1.30859375 11.69921875 C-1.53675781 12.45847656 -1.76492188 13.21773438 -2 14 C-2.33 14 -2.66 14 -3 14 C-3 11.03 -3 8.06 -3 5 C-2.34 5 -1.68 5 -1 5 C-0.67 3.35 -0.34 1.7 0 0 Z " fill="#08141D" transform="translate(333,451)"/>
<path d="M0 0 C1.45880109 0.14107747 2.91703551 0.28802415 4.375 0.4375 C5.59316406 0.55931641 5.59316406 0.55931641 6.8359375 0.68359375 C9 1 9 1 11 2 C11 2.66 11 3.32 11 4 C6.94393835 3.53199289 3.53411321 3.12046792 0 1 C0 0.67 0 0.34 0 0 Z " fill="#1A2934" transform="translate(416,787)"/>
<path d="M0 0 C0.99 0 1.98 0 3 0 C3 2 3 2 0.75 4.5 C-1.5264965 6.56954228 -3.19566446 7.85749293 -6 9 C-5.071875 7.88625 -5.071875 7.88625 -4.125 6.75 C-2.39562719 4.51198812 -1.13893339 2.56260013 0 0 Z " fill="#3E5663" transform="translate(244,272)"/>
<path d="M0 0 C0.99 0.66 1.98 1.32 3 2 C0.1875 4.0625 0.1875 4.0625 -3 6 C-3.99 5.67 -4.98 5.34 -6 5 C-5.195625 4.360625 -4.39125 3.72125 -3.5625 3.0625 C-1.7249496 1.59396498 -1.7249496 1.59396498 0 0 Z " fill="#385260" transform="translate(611,661)"/>
<path d="M0 0 C3.63 0.33 7.26 0.66 11 1 C10.67 1.99 10.34 2.98 10 4 C8.51882199 3.71872579 7.04006751 3.42466268 5.5625 3.125 C4.73878906 2.96257812 3.91507813 2.80015625 3.06640625 2.6328125 C2.38449219 2.42398437 1.70257812 2.21515625 1 2 C0.67 1.34 0.34 0.68 0 0 Z " fill="#182831" transform="translate(553,332)"/>
<path d="M0 0 C-1 2 -1 2 -3.28515625 2.8515625 C-4.20167969 3.10679687 -5.11820313 3.36203125 -6.0625 3.625 C-7.44115234 4.01558594 -7.44115234 4.01558594 -8.84765625 4.4140625 C-9.55792969 4.60742188 -10.26820313 4.80078125 -11 5 C-11 4.34 -11 3.68 -11 3 C-7.14243493 0.84694043 -4.44870215 -0.39253254 0 0 Z " fill="#4F6470" transform="translate(578,703)"/>
<path d="M0 0 C0.8125 1.6875 0.8125 1.6875 1 4 C-1.4375 6.75 -1.4375 6.75 -4 9 C-4.33 8.01 -4.66 7.02 -5 6 C-3.53619796 3.69973965 -1.92817889 1.92817889 0 0 Z " fill="#314754" transform="translate(662,606)"/>
<path d="M0 0 C-2.55068845 2.35448165 -3.71017358 2.98327924 -7.25 3.1875 C-8.1575 3.125625 -9.065 3.06375 -10 3 C-9.67 2.01 -9.34 1.02 -9 0 C-5.8033 -1.37001429 -3.30096158 -0.8252404 0 0 Z " fill="#3C5462" transform="translate(218,441)"/>
<path d="M0 0 C0.66 0.66 1.32 1.32 2 2 C0.02 4.31 -1.96 6.62 -4 9 C-4.66 8.67 -5.32 8.34 -6 8 C-2.25 2.25 -2.25 2.25 0 0 Z " fill="#435D6C" transform="translate(276,239)"/>
<path d="M0 0 C1.64599285 2.96278714 2.65262237 5.61306808 3 9 C2.01 10.485 2.01 10.485 1 12 C0.92652344 11.04287109 0.92652344 11.04287109 0.8515625 10.06640625 C0.77679687 9.24011719 0.70203125 8.41382813 0.625 7.5625 C0.55539062 6.73878906 0.48578125 5.91507813 0.4140625 5.06640625 C0.27742187 4.38449219 0.14078125 3.70257813 0 3 C-0.66 2.67 -1.32 2.34 -2 2 C-1.34 2 -0.68 2 0 2 C0 1.34 0 0.68 0 0 Z " fill="#364F5E" transform="translate(584,215)"/>
<path d="M0 0 C0.99 0.66 1.98 1.32 3 2 C1.71034824 3.37562854 0.37310707 4.70766393 -1 6 C-1.66 6 -2.32 6 -3 6 C-3.33 6.66 -3.66 7.32 -4 8 C-3.50168276 4.31245243 -2.89932357 2.39509338 0 0 Z " fill="#2E4B5B" transform="translate(160,457)"/>
<path d="M0 0 C3.93846154 3.32307692 3.93846154 3.32307692 4.25 6.75 C4.1675 7.4925 4.085 8.235 4 9 C0 4.5 0 4.5 0 0 Z " fill="#354F5E" transform="translate(234,359)"/>
<path d="M0 0 C0 0.66 0 1.32 0 2 C-6.75 6 -6.75 6 -9 6 C-9 5.34 -9 4.68 -9 4 C-3.70588235 0 -3.70588235 0 0 0 Z " fill="#3C4D5A" transform="translate(408,329)"/>
<path d="M0 0 C1.13643966 3.40931897 0.86747764 4.00335456 -0.4375 7.1875 C-0.86869141 8.26064453 -0.86869141 8.26064453 -1.30859375 9.35546875 C-1.53675781 9.89816406 -1.76492188 10.44085937 -2 11 C-2.33 11 -2.66 11 -3 11 C-3.32613618 6.32538149 -2.70582788 3.83325617 0 0 Z " fill="#0A151D" transform="translate(590,797)"/>
<path d="M0 0 C0 0.99 0 1.98 0 3 C-2.5 5.1875 -2.5 5.1875 -5 7 C-5 6.01 -5 5.02 -5 4 C-2.5 1.8125 -2.5 1.8125 0 0 Z " fill="#324A57" transform="translate(648,628)"/>
<path d="M0 0 C2.31 0.33 4.62 0.66 7 1 C7 1.66 7 2.32 7 3 C7.99 3.33 8.98 3.66 10 4 C7.25 4.25 7.25 4.25 4 4 C1.625 2 1.625 2 0 0 Z " fill="#12222A" transform="translate(542,328)"/>
<path d="M0 0 C0.66 0.66 1.32 1.32 2 2 C-1.4352048 4.29013653 -2.985331 4.17842973 -7 4 C-6.67 3.01 -6.34 2.02 -6 1 C-3.125 0.375 -3.125 0.375 0 0 Z " fill="#465D6B" transform="translate(367,260)"/>
<path d="M0 0 C0.33 0.99 0.66 1.98 1 3 C-0.375 5.6875 -0.375 5.6875 -2 8 C-2.33 8 -2.66 8 -3 8 C-3.36923077 3.44615385 -3.36923077 3.44615385 -1.5 1.1875 C-1.005 0.795625 -0.51 0.40375 0 0 Z " fill="#0B1820" transform="translate(345,422)"/>
<path d="M0 0 C1.67542976 0.28604898 3.34385343 0.61781233 5 1 C3 3 3 3 1.0546875 3.1953125 C-0.96354167 3.13020833 -2.98177083 3.06510417 -5 3 C-4.360625 2.690625 -3.72125 2.38125 -3.0625 2.0625 C-1.06389179 1.1654837 -1.06389179 1.1654837 0 0 Z " fill="#0D1921" transform="translate(472,328)"/>
</svg>
